<svg xmlns="http://www.w3.org/2000/svg" viewBox="0 0 512 512"><g fill="#e4f5f4"><path d="M334.314 249.162h78.58v78.567h-78.58z"/><path d="M334.314 327.73h78.58v78.58h-78.58z"/><path d="M255.748 327.73h78.567v78.58h-78.567z"/><path d="M255.748 249.162h78.567v78.567h-78.567z"/><path d="M177.17 249.162h78.58v78.567h-78.58z"/><path d="M177.17 327.73h78.58v78.58h-78.58z"/><path d="M98.602 327.73h78.567v78.58H98.602z"/><path d="M98.602 249.162h78.567v78.567H98.602z"/></g><path d="M499.734 179.334v278.764a18.03 18.03 0 0 1-18.028 18.028H29.8c-9.964 0-18.028-8.065-18.028-18.028V179.334h487.963zM412.898 406.31V249.163H98.607V406.31h314.29z" fill="#f27258"/><path d="M130.59 72.463h351.115c9.952 0 18.028 8.077 18.028 18.028v88.843H11.77V90.49a18.03 18.03 0 0 1 18.028-18.028h100.8z" fill="#ffdb6f"/><path d="M481.953 59.18h-88.778V37.136c0-6.637-5.38-12.02-12.02-12.02a12.02 12.02 0 0 0-12.02 12.02V59.18h-59.4V37.136c0-6.637-5.38-12.02-12.02-12.02a12.02 12.02 0 0 0-12.015 12.02V59.18h-59.4V37.136c0-6.637-5.38-12.02-12.02-12.02a12.02 12.02 0 0 0-12.02 12.02V59.18h-59.4V37.136c0-6.637-5.38-12.02-12.02-12.02a12.02 12.02 0 0 0-12.02 12.02V59.18H30.047C13.48 59.18 0 72.66 0 89.228v367.608c0 16.568 13.48 30.047 30.047 30.047h451.906c16.568 0 30.047-13.48 30.047-30.047V89.228c0-16.568-13.48-30.047-30.047-30.047zm6 397.656a6.02 6.02 0 0 1-6.009 6.009H30.047a6.02 6.02 0 0 1-6.009-6.009v-266.75H450.3c6.638 0 12.02-5.382 12.02-12.02a12.02 12.02 0 0 0-12.02-12.02H24.038V89.228a6.02 6.02 0 0 1 6.009-6.009h88.778v22.045c0 6.637 5.38 12.02 12.02 12.02a12.02 12.02 0 0 0 12.02-12.02V83.22h59.4v22.045c0 6.637 5.38 12.02 12.02 12.02a12.02 12.02 0 0 0 12.02-12.02V83.22h59.4v22.045c0 6.637 5.38 12.02 12.02 12.02a12.02 12.02 0 0 0 12.02-12.02V83.22h59.4v22.045c0 6.637 5.38 12.02 12.02 12.02a12.02 12.02 0 0 0 12.02-12.02V83.22h88.78a6.02 6.02 0 0 1 6.009 6.009v367.6zm-74.817-219.76H98.854a10.82 10.82 0 0 0-10.817 10.817V405.04a10.82 10.82 0 0 0 10.817 10.817h314.292a10.82 10.82 0 0 0 10.817-10.817V247.894a10.82 10.82 0 0 0-10.817-10.817zM166.6 394.224h-56.94v-56.94h56.94v56.94zm0-78.573h-56.94v-56.94h56.94v56.94zm78.573 78.573h-56.94v-56.94h56.94v56.94zm0-78.573h-56.94v-56.94h56.94v56.94zm78.573 78.573h-56.94v-56.94h56.94v56.94zm0-78.573h-56.94v-56.94h56.94v56.94zm78.573 78.573H345.4v-56.94h56.94v56.94zm0-78.573H345.4v-56.94h56.94v56.94z" fill="#201f2e"/></svg>