<svg xmlns="http://www.w3.org/2000/svg" viewBox="0 0 512 512"><path d="M438.97 111.915C471.624 153.32 488.88 203.15 488.88 256c0 128.4-104.47 232.882-232.882 232.882S23.118 384.4 23.118 256 127.6 23.118 256 23.118c52.825 0 102.622 17.246 144.015 49.855a11.54 11.54 0 0 0 14.599-.243l24.598 24.586c-3.48 4.115-3.7 10.22-.243 14.6zM459.8 256c0-112.378-91.42-203.8-203.8-203.8S52.2 143.622 52.2 256s91.42 203.8 203.8 203.8 203.8-91.42 203.8-203.8z" fill="#f27258"/><path d="M256 75.32c99.628 0 180.68 81.053 180.68 180.68S355.628 436.68 256 436.68 75.32 355.628 75.32 256 156.372 75.32 256 75.32zM418.452 256c0-6.38-5.178-11.56-11.56-11.56h-14.3A11.56 11.56 0 0 0 381.024 256a11.56 11.56 0 0 0 11.559 11.559h14.3c6.38 0 11.56-5.178 11.56-11.56zm-25.997-65.436c5.525-3.2 7.42-10.265 4.23-15.8s-10.253-7.42-15.8-4.23l-12.39 7.155c-5.537 3.2-7.42 10.265-4.23 15.8 2.138 3.7 6.022 5.78 10.022 5.78 1.953 0 3.942-.497 5.768-1.55l12.39-7.155zm4.23 146.662c3.2-5.525 1.295-12.6-4.23-15.8l-12.39-7.155c-5.537-3.2-12.6-1.295-15.8 4.23s-1.306 12.6 4.23 15.8l12.39 7.155a11.466 11.466 0 0 0 5.768 1.549c4 0 7.884-2.07 10.022-5.78zm-55.23-206.122c3.2-5.525 1.295-12.6-4.23-15.8s-12.6-1.295-15.8 4.23l-7.155 12.39c-3.2 5.537-1.295 12.6 4.23 15.8a11.466 11.466 0 0 0 5.768 1.549c4 0 7.883-2.07 10.022-5.78l7.155-12.39zm-4.23 265.582c5.525-3.2 7.42-10.264 4.23-15.8l-7.155-12.39c-3.2-5.537-10.253-7.42-15.8-4.23-5.525 3.2-7.42 10.253-4.23 15.8l7.155 12.39c2.138 3.7 6.022 5.78 10.022 5.78 1.965 0 3.942-.497 5.768-1.55zm-13.027-71.92a10.98 10.98 0 0 0 0-15.524l-43.405-43.416a26.511 26.511 0 0 0 1.78-9.559v-67.702C282.574 173.907 270.657 162 256 162s-26.574 11.917-26.574 26.574v41.127h-37c-14.657 0-26.586 11.93-26.586 26.586s11.93 26.586 26.586 26.586H256c.173 0 .335-.012.51-.023a26.362 26.362 0 0 0 8.623-1.607l43.543 43.532a10.903 10.903 0 0 0 7.756 3.225 10.91 10.91 0 0 0 7.768-3.225zm-56.64 82.128v-14.3A11.56 11.56 0 0 0 256 381.024a11.56 11.56 0 0 0-11.559 11.559v14.3c0 6.38 5.178 11.56 11.56 11.56s11.56-5.18 11.56-11.56zm0-287.476v-14.3c0-6.38-5.178-11.56-11.56-11.56s-11.56 5.178-11.56 11.56v14.3A11.56 11.56 0 0 0 256 130.976c6.38 0 11.56-5.166 11.56-11.56zm-74.07 28.31c5.525-3.2 7.42-10.253 4.23-15.8l-7.155-12.39c-3.2-5.525-10.253-7.42-15.8-4.23-5.525 3.2-7.42 10.265-4.23 15.8l7.155 12.39c2.138 3.7 6.022 5.78 10.022 5.78 1.965 0 3.953-.497 5.768-1.55zm4.23 232.338c3.2-5.537 1.295-12.6-4.23-15.8s-12.6-1.306-15.8 4.23l-7.155 12.39c-3.2 5.525-1.295 12.6 4.23 15.8a11.495 11.495 0 0 0 5.768 1.549c4 0 7.883-2.07 10.022-5.78l7.155-12.39zm-49.993-186.576c3.2-5.525 1.306-12.6-4.23-15.8l-12.39-7.155c-5.525-3.2-12.6-1.295-15.8 4.23s-1.295 12.6 4.23 15.8l12.39 7.155a11.528 11.528 0 0 0 5.768 1.549c4 0 7.883-2.07 10.022-5.78zm-4.23 140.814c5.537-3.2 7.42-10.264 4.23-15.8s-10.253-7.42-15.8-4.23l-12.39 7.155c-5.525 3.2-7.42 10.264-4.23 15.8 2.138 3.7 6.022 5.78 10.022 5.78 1.965 0 3.953-.497 5.768-1.55l12.39-7.155zM130.976 256a11.56 11.56 0 0 0-11.559-11.559h-14.3c-6.38 0-11.56 5.178-11.56 11.56s5.178 11.56 11.56 11.56h14.3c6.393 0 11.56-5.178 11.56-11.56z" fill="#ffdb6f"/><path d="M260.612 188.564v67.702A4.62 4.62 0 0 1 256 260.89a4.62 4.62 0 0 1-4.612-4.624v-67.702a4.62 4.62 0 0 1 4.612-4.612 4.62 4.62 0 0 1 4.612 4.612zM229.83 260.9h-37.405a4.63 4.63 0 0 1-4.624-4.624 4.63 4.63 0 0 1 4.624-4.624h37v4.612c0 1.584.138 3.133.404 4.636z" fill="#e4f5f4"/><path d="M457.117 97.605c-3.953-5.017-11.224-5.872-16.23-1.92a11.167 11.167 0 0 0-1.676 1.63c-3.48 4.115-3.7 10.218-.243 14.6C471.624 153.32 488.88 203.15 488.88 256c0 128.4-104.47 232.882-232.882 232.882S23.118 384.4 23.118 256 127.6 23.118 256 23.118c52.825 0 102.622 17.246 144.015 49.855a11.54 11.54 0 0 0 14.599-.243 11.167 11.167 0 0 0 1.63-1.676c3.953-5.017 3.098-12.287-1.92-16.23C368.817 18.957 314.062 0 256 0 187.616 0 123.336 26.632 74.984 74.984S0 187.616 0 256s26.632 132.664 74.984 181.016S187.616 512 256 512s132.664-26.632 181.016-74.984S512 324.384 512 256c0-58.096-18.98-112.875-54.883-158.395zM381.024 256a11.56 11.56 0 0 0 11.559 11.559h14.3c6.38 0 11.56-5.178 11.56-11.56s-5.178-11.56-11.56-11.56h-14.3a11.56 11.56 0 0 0-11.56 11.56zM256 52.2C143.622 52.2 52.2 143.62 52.2 256S143.62 459.8 256 459.8 459.8 368.38 459.8 256 368.378 52.2 256 52.2zm0 384.48c-99.628 0-180.68-81.053-180.68-180.68S156.372 75.32 256 75.32 436.68 156.372 436.68 256 355.628 436.68 256 436.68zm112.505-258.982c-5.537 3.2-7.42 10.265-4.23 15.8 2.138 3.7 6.022 5.78 10.022 5.78a11.52 11.52 0 0 0 5.768-1.55l12.4-7.155a11.58 11.58 0 0 0 4.23-15.8c-3.2-5.535-10.253-7.42-15.8-4.23l-12.4 7.155zm23.95 143.738l-12.4-7.155c-5.537-3.2-12.6-1.295-15.8 4.23s-1.306 12.6 4.23 15.8l12.4 7.155a11.466 11.466 0 0 0 5.768 1.549c4 0 7.883-2.07 10.022-5.78 3.2-5.525 1.295-12.6-4.23-15.8zm-55.23-206.122c-5.525-3.2-12.6-1.295-15.8 4.23l-7.155 12.4c-3.2 5.537-1.295 12.6 4.23 15.8a11.466 11.466 0 0 0 5.768 1.549c4 0 7.883-2.07 10.022-5.78l7.155-12.4c3.2-5.526 1.294-12.6-4.23-15.8zm-2.924 253.2c-3.2-5.537-10.253-7.42-15.8-4.23-5.525 3.2-7.42 10.253-4.23 15.8l7.155 12.4c2.138 3.7 6.022 5.78 10.022 5.78 1.965 0 3.942-.497 5.768-1.55a11.58 11.58 0 0 0 4.23-15.8l-7.155-12.4zm-10.103-43.74a10.98 10.98 0 0 0 0-15.524l-43.405-43.416a26.511 26.511 0 0 0 1.78-9.559v-67.702C282.574 173.907 270.657 162 256 162s-26.574 11.917-26.574 26.574V229.7h-37c-14.657 0-26.586 11.93-26.586 26.586s11.93 26.586 26.586 26.586H256c.173 0 .335-.012.5-.023a26.362 26.362 0 0 0 8.623-1.607l43.543 43.532a10.903 10.903 0 0 0 7.756 3.225 10.91 10.91 0 0 0 7.768-3.225zM192.425 260.9a4.63 4.63 0 0 1-4.624-4.624 4.63 4.63 0 0 1 4.624-4.624h37v4.612a26.66 26.66 0 0 0 .405 4.635h-37.406zm68.187-4.635A4.62 4.62 0 0 1 256 260.89a4.62 4.62 0 0 1-4.612-4.624v-67.702a4.62 4.62 0 0 1 4.612-4.612 4.62 4.62 0 0 1 4.612 4.612v67.702zM256 381.024a11.56 11.56 0 0 0-11.559 11.559v14.3c0 6.38 5.178 11.56 11.56 11.56s11.56-5.178 11.56-11.56v-14.3a11.56 11.56 0 0 0-11.56-11.56zm0-250.048a11.56 11.56 0 0 0 11.559-11.559v-14.3c0-6.38-5.178-11.56-11.56-11.56s-11.56 5.178-11.56 11.56v14.3a11.56 11.56 0 0 0 11.56 11.56zm-78.302 12.52c2.138 3.7 6.022 5.78 10.022 5.78 1.965 0 3.953-.497 5.768-1.55 5.525-3.2 7.42-10.253 4.23-15.8l-7.155-12.4c-3.2-5.525-10.253-7.42-15.8-4.23a11.58 11.58 0 0 0-4.23 15.8l7.155 12.4zm15.8 220.78c-5.525-3.2-12.6-1.306-15.8 4.23l-7.155 12.4c-3.2 5.525-1.295 12.6 4.23 15.8a11.495 11.495 0 0 0 5.768 1.549c4 0 7.883-2.07 10.022-5.78l7.155-12.4c3.2-5.537 1.295-12.6-4.23-15.8zM143.505 177.7l-12.4-7.155c-5.525-3.2-12.6-1.295-15.8 4.23s-1.295 12.6 4.23 15.8l12.4 7.155a11.528 11.528 0 0 0 5.768 1.549c4 0 7.883-2.07 10.022-5.78 3.2-5.525 1.306-12.6-4.23-15.8zm-11.56 136.583l-12.4 7.155a11.58 11.58 0 0 0-4.23 15.8c2.138 3.7 6.022 5.78 10.022 5.78 1.965 0 3.953-.497 5.768-1.55l12.4-7.155c5.537-3.2 7.42-10.264 4.23-15.8s-10.253-7.42-15.8-4.23zm-.96-58.28a11.56 11.56 0 0 0-11.559-11.559h-14.3c-6.38 0-11.56 5.178-11.56 11.56s5.178 11.56 11.56 11.56h14.3a11.56 11.56 0 0 0 11.56-11.56z" fill="#201f2e"/></svg>