<svg xmlns="http://www.w3.org/2000/svg" viewBox="0 0 512 512"><path d="M473.336 43.216l-.775 280.835c-2.82 19.736-13.028 39.26-28.734 54.966-15.718 15.718-35.23 25.915-54.966 28.734-3.712.53-7.354.8-10.902.8-16.54 0-31.2-5.686-41.986-16.493-13.134-13.122-18.702-31.906-15.706-52.887 2.82-19.736 13.028-39.26 28.734-54.966 15.718-15.718 35.23-25.927 54.966-28.746 17.492-2.5 33.445.987 45.874 9.81V110.835l-257.317 94.8-.023 212.653c-.07 3.02-.305 6.097-.752 9.222-2.82 19.736-13.028 39.26-28.734 54.966-15.718 15.718-35.23 25.915-54.966 28.734-3.712.53-7.342.8-10.902.8-16.54 0-31.178-5.698-41.986-16.493-13.122-13.122-18.702-31.906-15.706-52.9 2.82-19.724 13.028-39.248 28.734-54.966 15.718-15.706 35.23-25.915 54.966-28.734 17.492-2.5 33.445.987 45.874 9.81v-245.24c0-18.02 11.372-34.326 28.288-40.552l217.857-80.26c13.25-4.887 28.076-2.972 39.66 5.098 11.583 8.083 18.502 21.334 18.502 35.454zM449.84 313.503v-.33c-.023-10.28-3.325-19.125-9.598-25.398-6.297-6.297-15.178-9.598-25.504-9.598a52.73 52.73 0 0 0-7.448.54c-14.73 2.115-29.533 9.95-41.68 22.097-12.135 12.135-19.982 26.937-22.085 41.668-1.927 13.486 1.292 25.187 9.057 32.963 7.765 7.765 19.466 10.984 32.952 9.057 14.73-2.115 29.533-9.95 41.668-22.097 12.147-12.147 19.994-26.937 22.097-41.68.353-2.466.53-4.874.54-7.223zm0-227.702V43.216c0-6.543-3.078-12.44-8.446-16.176-5.357-3.747-11.96-4.593-18.09-2.338l-217.87 80.26a19.83 19.83 0 0 0-12.91 18.514v57.116L449.84 85.8zM169.03 416.974v-.376c-.023-10.267-3.325-19.1-9.598-25.375-6.297-6.297-15.178-9.598-25.492-9.598-2.42 0-4.9.176-7.46.54-14.73 2.103-29.533 9.95-41.668 22.097-12.147 12.135-19.994 26.937-22.097 41.668-1.927 13.486 1.292 25.187 9.057 32.952 7.765 7.777 19.477 10.984 32.952 9.057 14.73-2.103 29.533-9.95 41.68-22.085 12.135-12.147 19.982-26.95 22.085-41.68.353-2.465.53-4.862.54-7.2z" fill="#1e0478"/><path d="M449.84 313.174v.33a53.03 53.03 0 0 1-.54 7.225c-2.103 14.743-9.95 29.533-22.097 41.68-12.135 12.147-26.937 19.982-41.668 22.097-13.486 1.927-25.187-1.292-32.952-9.057-7.765-7.777-10.984-19.477-9.057-32.963 2.103-14.73 9.95-29.533 22.085-41.668 12.147-12.147 26.95-19.982 41.68-22.097a52.73 52.73 0 0 1 7.448-.54c10.326 0 19.207 3.3 25.504 9.598 6.272 6.27 9.573 15.117 9.597 25.396z" fill="#94e7ef"/><path d="M449.84 43.216V85.8l-257.317 94.8v-57.116a19.83 19.83 0 0 1 12.91-18.514l217.87-80.26c6.132-2.256 12.734-1.4 18.09 2.338 5.37 3.736 8.447 9.633 8.447 16.176z" fill="#9b8ccc"/><path d="M169.03 416.6v.376c-.012 2.338-.188 4.734-.54 7.2-2.103 14.73-9.95 29.533-22.085 41.68-12.147 12.135-26.95 19.982-41.68 22.085-13.474 1.927-25.187-1.28-32.952-9.057-7.765-7.765-10.984-19.466-9.057-32.952 2.103-14.73 9.95-29.533 22.097-41.668 12.135-12.147 26.937-19.994 41.668-22.097 2.56-.364 5.04-.54 7.46-.54 10.314 0 19.195 3.3 25.492 9.598 6.273 6.272 9.574 15.106 9.597 25.374z" fill="#94e7ef"/></svg>