<svg xmlns="http://www.w3.org/2000/svg" viewBox="0 0 512 512"><path d="M268.37 194.538c15.208 0 27.548 12.34 27.548 27.56s-12.34 27.56-27.548 27.56c-15.22 0-27.56-12.34-27.56-27.56s12.34-27.56 27.56-27.56z" fill="#ffdb6f"/><path d="M269.316 331.495L320.7 382.87H58.532V353l116.14-116.128z" fill="#f27258"/><path d="M269.316 331.495l-94.644-94.633L58.532 353V153.94H393.42v210.025l-79.366-77.885-44.738 45.415zm26.603-109.398c0-15.22-12.34-27.56-27.548-27.56-15.22 0-27.56 12.34-27.56 27.56s12.34 27.56 27.56 27.56c15.208.001 27.548-12.34 27.548-27.56z" fill="#31ccc9"/><path d="M393.42 363.964v18.906H320.7l-51.374-51.375.84-.84 43.9-44.575z" fill="#f27258"/><g fill="#e4f5f4"><path d="M500.1 58.875v348.743h-59.574V118.496a11.67 11.67 0 0 0-11.663-11.663H71V58.875c0-6.403 5.202-11.605 11.605-11.605h405.88A11.62 11.62 0 0 1 500.1 58.875z"/><path d="M440.526 407.618v47.9a11.66 11.66 0 0 1-11.663 11.663H23.09a11.66 11.66 0 0 1-11.663-11.663v-337.02a11.67 11.67 0 0 1 11.663-11.663h405.775a11.67 11.67 0 0 1 11.663 11.663v289.122zM393.42 382.87V153.94H58.532v228.93H393.42z"/></g><path d="M488.727 34.376H82.844c-12.833 0-23.273 10.44-23.273 23.273v36.295H23.326C10.464 93.944 0 104.408 0 117.27v337.028c0 12.862 10.464 23.326 23.326 23.326h405.778c12.862 0 23.326-10.464 23.326-23.326V117.27c0-12.862-10.464-23.326-23.326-23.326H82.883l-.04-36.242 405.83-.052v348.737c0 6.44 5.223 11.663 11.663 11.663S512 412.828 512 406.387V57.65c0-12.833-10.44-23.274-23.273-23.274zm-59.623 82.894v337.028l-405.778.014V117.27h47.817c.03 0 .06.005.1.005s.06-.005.1-.005h357.78zm-382 35.44v228.934c0 6.44 5.22 11.663 11.663 11.663h334.895c6.44 0 11.663-5.22 11.663-11.663V152.7c0-6.44-5.223-11.663-11.663-11.663H58.767c-6.442 0-11.663 5.222-11.663 11.663zM382 369.982h-56.24l-40.05-40.05 28.585-28.586 65.944 65.935c.55.55 1.14 1.03 1.762 1.445v1.255zM70.43 164.374H382v171.684l-59.46-59.452a11.67 11.67 0 0 0-16.494 0l-36.83 36.83-86.056-86.056a11.67 11.67 0 0 0-16.494 0L70.43 323.6V164.374zm0 192.223L174.9 252.124l117.858 117.858H70.43v-13.385zM268.604 260.1c21.624 0 39.218-17.593 39.218-39.218s-17.593-39.216-39.218-39.216-39.216 17.592-39.216 39.216S246.98 260.1 268.604 260.1zm0-55.1c8.763 0 15.892 7.128 15.892 15.9s-7.128 15.892-15.892 15.892-15.9-7.13-15.9-15.892 7.13-15.9 15.9-15.9z" fill="#201f2e"/></svg>