<svg xmlns="http://www.w3.org/2000/svg" viewBox="0 0 512 512"><path d="M501.8 313.316V198.684h-52.94c-4.002-13.486-9.367-26.387-15.958-38.527l37.434-37.434-81.06-81.058L351.844 79.1a199.88 199.88 0 0 0-38.527-15.958V10.2H198.684v52.94c-13.486 4.002-26.387 9.367-38.527 15.958l-37.434-37.433-81.058 81.058L79.1 160.156a199.88 199.88 0 0 0-15.958 38.527H10.2v114.634h52.94c4.002 13.486 9.367 26.387 15.958 38.527l-37.433 37.433 81.058 81.058 37.434-37.434a199.88 199.88 0 0 0 38.527 15.958v52.94h114.634v-52.94c13.486-4.002 26.387-9.367 38.527-15.958l37.434 37.434 81.058-81.058-37.434-37.434a199.88 199.88 0 0 0 15.958-38.527l52.94-.001zM256 348.038c-50.83 0-92.038-41.207-92.038-92.038S205.17 163.962 256 163.962 348.038 205.17 348.038 256 306.83 348.038 256 348.038z" fill="#ffca12"/><path d="M313.316 512H198.684a10.2 10.2 0 0 1-10.199-10.199v-45.473a211.16 211.16 0 0 1-26.398-10.93l-32.153 32.153a10.2 10.2 0 0 1-14.424 0L34.45 396.5a10.2 10.2 0 0 1 0-14.424l32.153-32.153c-4.23-8.52-7.886-17.355-10.932-26.398H10.2A10.2 10.2 0 0 1 0 313.317V198.684a10.2 10.2 0 0 1 10.199-10.199h45.473a210.81 210.81 0 0 1 10.932-26.398L34.45 129.934a10.2 10.2 0 0 1 0-14.424l81.06-81.06a10.2 10.2 0 0 1 14.424 0l32.153 32.153a210.81 210.81 0 0 1 26.398-10.932V10.2A10.2 10.2 0 0 1 198.684 0h114.634a10.2 10.2 0 0 1 10.199 10.199v45.473a210.87 210.87 0 0 1 26.398 10.932l32.153-32.153a10.2 10.2 0 0 1 14.424 0l81.06 81.06a10.2 10.2 0 0 1 0 14.424L445.4 162.088c4.23 8.52 7.886 17.354 10.93 26.398h45.47a10.2 10.2 0 0 1 10.2 10.198v114.634a10.2 10.2 0 0 1-10.199 10.199h-45.473a210.83 210.83 0 0 1-10.931 26.398l32.153 32.153a10.2 10.2 0 0 1 0 14.424L396.5 477.55a10.2 10.2 0 0 1-14.424 0l-32.153-32.153c-8.52 4.23-17.356 7.886-26.398 10.93V501.8a10.2 10.2 0 0 1-10.199 10.2zm-104.433-20.398h94.236v-42.74a10.2 10.2 0 0 1 7.298-9.778 190.24 190.24 0 0 0 36.563-15.144 10.2 10.2 0 0 1 12.079 1.751l30.222 30.222 66.634-66.634-30.222-30.222c-3.193-3.194-3.906-8.1-1.75-12.08 6.283-11.57 11.377-23.87 15.144-36.563a10.2 10.2 0 0 1 9.778-7.298h42.74V208.88h-42.74a10.2 10.2 0 0 1-9.778-7.298c-3.767-12.7-8.86-24.992-15.144-36.563a10.2 10.2 0 0 1 1.751-12.079l30.222-30.222-66.634-66.634-30.222 30.222a10.2 10.2 0 0 1-12.079 1.751c-11.573-6.284-23.874-11.378-36.563-15.144a10.2 10.2 0 0 1-7.298-9.778V20.398h-94.24v42.74a10.2 10.2 0 0 1-7.298 9.778 190.24 190.24 0 0 0-36.563 15.144c-3.97 2.154-8.885 1.442-12.08-1.75l-30.22-30.222-66.634 66.634 30.222 30.222c3.193 3.194 3.906 8.1 1.75 12.08-6.283 11.572-11.378 23.873-15.144 36.563a10.2 10.2 0 0 1-9.778 7.298H20.398v94.236h42.74a10.2 10.2 0 0 1 9.778 7.298c3.766 12.7 8.86 25 15.144 36.563a10.2 10.2 0 0 1-1.751 12.079l-30.222 30.222 66.634 66.634 30.222-30.222c3.195-3.193 8.1-3.905 12.08-1.75 11.573 6.284 23.874 11.378 36.563 15.144a10.2 10.2 0 0 1 7.298 9.778l-.001 42.738zM256 358.237c-56.373 0-102.237-45.863-102.237-102.237S199.627 153.763 256 153.763 358.237 199.627 358.237 256 312.373 358.237 256 358.237zm0-184.075c-45.125 0-81.838 36.713-81.838 81.838s36.713 81.838 81.838 81.838 81.838-36.713 81.838-81.838-36.712-81.838-81.838-81.838zm0 220.792a10.2 10.2 0 0 1-10.199-10.199A10.2 10.2 0 0 1 256 374.556c50.206 0 95.15-31.792 111.838-79.1a10.2 10.2 0 1 1 19.237 6.785C367.515 357.7 314.84 394.954 256 394.954zM384.62 272.32c-.16 0-.32-.003-.483-.01a10.2 10.2 0 0 1-9.713-10.664l.132-5.643a10.2 10.2 0 0 1 10.199-10.199 10.2 10.2 0 0 1 10.199 10.199l-.154 6.595a10.2 10.2 0 0 1-10.18 9.723z"/></svg>