<svg xmlns="http://www.w3.org/2000/svg" viewBox="0 0 512 512"><path d="M119.182 461.228H16.568a8.552 8.552 0 0 1-8.551-8.551V59.324a8.552 8.552 0 0 1 8.551-8.551h102.614v410.455z" fill="#f1f4fb"/><path d="M93.528 50.772v154.503C64.53 208.84 42.22 230.158 42.22 256s22.3 47.16 51.307 50.724v154.503h25.653V50.772H93.528z" fill="#d5dced"/><path d="M367.165 8.017h-222.33c-14.168 0-25.653 11.485-25.653 25.653v42.756H392.82V33.67c-.001-14.168-11.486-25.653-25.654-25.653zm-222.33 495.966h222.33c14.168 0 25.653-11.485 25.653-25.653v-42.756H119.182v42.756c0 14.168 11.485 25.653 25.653 25.653z" fill="#5b5d6e"/><path fill="#e4eaf8" d="M119.182 76.426H392.82v25.653H119.182z"/><path d="M478.33 367.165H187.59c-14.168 0-25.653-11.485-25.653-25.653V170.49c0-14.168 11.485-25.653 25.653-25.653h290.74c14.168 0 25.653 11.485 25.653 25.653v171.023c0 14.168-11.485 25.653-25.653 25.653z" fill="#00c3ff"/><path d="M256 230.347h-34.205a8.552 8.552 0 0 1-8.551-8.551v-17.102a8.552 8.552 0 0 1 8.551-8.551H256a8.552 8.552 0 0 1 8.551 8.551v17.102a8.552 8.552 0 0 1-8.551 8.551z" fill="#ffdc64"/><circle cx="401.37" cy="204.693" r="25.653" fill="#ff5050"/><circle cx="444.125" cy="204.693" r="25.653" fill="#ffdc64"/><g fill="#8ce16e"><circle cx="102.079" cy="153.386" r="17.102"/><circle cx="102.079" cy="358.614" r="17.102"/></g><path d="M273.102 461.762h-34.205a8.017 8.017 0 0 0 0 16.034h34.205a8.017 8.017 0 0 0 0-16.034zM238.898 50.238h34.205a8.017 8.017 0 0 0 0-16.034h-34.205a8.017 8.017 0 0 0 0 16.034zm-25.654 0h.086c4.427 0 7.974-3.6 7.974-8.017s-3.632-8.017-8.06-8.017a8.017 8.017 0 0 0-.001 16.034zm265.086 86.58h-77.495V33.67c0-18.566-15.105-33.67-33.67-33.67h-222.33c-18.566 0-33.67 15.105-33.67 33.67v9.086H16.568A16.59 16.59 0 0 0 0 59.324v393.353a16.59 16.59 0 0 0 16.568 16.568h94.597v9.086c0 18.566 15.105 33.67 33.67 33.67h222.33c18.566 0 33.67-15.105 33.67-33.67V375.18h77.495c18.566 0 33.67-15.105 33.67-33.67V170.5c0-18.566-15.105-33.67-33.67-33.67zM127.198 33.67c0-9.725 7.912-17.637 17.637-17.637h222.33c9.725 0 17.637 7.912 17.637 17.637V68.4H127.198V33.67zm-76.96 260.563c12.46 12.885 31.07 21.1 51.84 21.1 3.05 0 6.084-.183 9.086-.533v20.413a24.984 24.984 0 0 0-9.086-1.707c-13.85-.001-25.12 11.267-25.12 25.118s11.268 25.12 25.12 25.12a24.99 24.99 0 0 0 9.086-1.707v36.98H83.68c-3.255-16.863-16.58-30.187-33.44-33.44v-91.332zm60.927-164.26a24.984 24.984 0 0 0-9.086-1.707c-13.85 0-25.12 11.268-25.12 25.12s11.268 25.12 25.12 25.12a24.99 24.99 0 0 0 9.086-1.707v20.413a78.218 78.218 0 0 0-9.086-.533c-20.77 0-39.38 8.205-51.84 21.1v-91.333c16.863-3.255 30.187-16.58 33.44-33.44h27.486v36.98zm0 23.412a9.1 9.1 0 0 1-9.086 9.086 9.1 9.1 0 0 1-9.086-9.086 9.1 9.1 0 0 1 9.086-9.086 9.1 9.1 0 0 1 9.086 9.086zM102.08 212.7c3.065 0 6.098.25 9.086.693v18.2c-10.8 3.032-14.58 15.1-16.738 22.017-3.513 11.244-5.355 11.47-6.696 11.477-.948-.397-3.3-3.65-3.3-9.086 0-5.524 2.383-8.75 3.33-9.102a8.018 8.018 0 0 0-5.588-15.028c-6.2 2.3-10.882 8.4-12.807 16.113h-1.503a8.017 8.017 0 0 0 0 16.034h1.504c2.5 10.037 9.64 17.102 18.27 17.102 14.98 0 19.6-14.785 22.082-22.728a91.43 91.43 0 0 1 1.433-4.245v44.45a61.925 61.925 0 0 1-9.086.693c-28.585 0-51.84-19.42-51.84-43.3s23.256-43.3 51.84-43.3zm9.086 145.904a9.1 9.1 0 0 1-9.086 9.086 9.1 9.1 0 0 1-9.086-9.086 9.1 9.1 0 0 1 9.086-9.086 9.1 9.1 0 0 1 9.086 9.086zM16.568 453.2a.534.534 0 0 1-.534-.534V59.324c0-.295.24-.534.534-.534h94.597v18.17h-34.74a8.017 8.017 0 0 0-8.017 8.017c0 14.44-11.748 26.188-26.188 26.188a8.017 8.017 0 0 0-8.017 8.017V392.82a8.017 8.017 0 0 0 8.017 8.017c14.44 0 26.188 11.748 26.188 26.188a8.017 8.017 0 0 0 8.017 8.017h34.74v18.17H16.568zm350.597 42.756h-222.33c-9.725 0-17.637-7.912-17.637-17.637v-34.74H384.8v34.74a17.66 17.66 0 0 1-17.636 17.637zm17.637-68.4H127.198V84.443H384.8v52.376H187.6c-18.566 0-33.67 15.105-33.67 33.67v171.023c0 18.566 15.105 33.67 33.67 33.67h197.2v52.375zm111.165-86.046c0 9.725-7.912 17.637-17.637 17.637H187.6c-9.725 0-17.637-7.912-17.637-17.637V170.5c0-9.725 7.912-17.637 17.637-17.637h290.74c9.725 0 17.637 7.912 17.637 17.637V341.5zm-172.092-76.97a8.017 8.017 0 0 0-8.017-8.017h-34.205a8.017 8.017 0 0 0 0 16.034h34.205a8.017 8.017 0 0 0 8.017-8.017zm-110.63 8.017h34.205a8.017 8.017 0 0 0 0-16.034h-34.205a8.017 8.017 0 0 0 0 16.034zm136.82 18.17H332.96a8.017 8.017 0 0 0 0 16.034h17.102a8.017 8.017 0 0 0 .001-16.034zm-85.512 34.205h-51.307a8.017 8.017 0 0 0 0 16.034h51.307a8.017 8.017 0 0 0 0-16.034zm59.858 0h-25.653a8.017 8.017 0 0 0 0 16.034h25.653a8.017 8.017 0 0 0 0-16.034zm76.96-34.205H384.27a8.017 8.017 0 0 0 0 16.034h17.102a8.017 8.017 0 0 0 0-16.034zm51.306-34.205H418.47a8.017 8.017 0 0 0 0 16.034h34.205a8.017 8.017 0 0 0 0-16.034zm-102.613 16.034h34.205a8.017 8.017 0 0 0 0-16.034h-34.205a8.017 8.017 0 0 0 0 16.034zM256 188.125h-34.205a16.59 16.59 0 0 0-16.568 16.568v17.102a16.59 16.59 0 0 0 16.568 16.568H256a16.59 16.59 0 0 0 16.568-16.568v-17.102A16.59 16.59 0 0 0 256 188.125zm.534 33.67a.534.534 0 0 1-.534.534h-34.205a.534.534 0 0 1-.534-.534v-17.102c0-.295.24-.534.534-.534H256c.295 0 .534.24.534.534v17.102zm187.6-50.772c-8.1 0-15.56 2.883-21.378 7.677-5.82-4.794-13.268-7.677-21.378-7.677-18.566 0-33.67 15.105-33.67 33.67s15.105 33.67 33.67 33.67c8.1 0 15.56-2.883 21.378-7.677 5.82 4.794 13.268 7.677 21.378 7.677 18.566 0 33.67-15.105 33.67-33.67s-15.104-33.67-33.67-33.67zm-60.392 33.67c0-9.725 7.912-17.637 17.637-17.637 4.514 0 8.624 1.72 11.747 4.518a33.5 33.5 0 0 0-2.662 13.119c0 4.652.948 9.085 2.662 13.12-3.123 2.8-7.233 4.518-11.747 4.518-9.725 0-17.637-7.912-17.637-17.637zm60.392 17.637c-4.514 0-8.624-1.72-11.747-4.518a33.5 33.5 0 0 0 2.662-13.119c0-4.652-.948-9.085-2.662-13.12 3.122-2.8 7.233-4.518 11.747-4.518 9.725 0 17.637 7.912 17.637 17.637s-7.912 17.637-17.637 17.637zM42.22 418.964c-4.427 0-8.06 3.632-8.06 8.06s3.632 8.06 8.06 8.06 8.06-3.632 8.06-8.06-3.63-8.06-8.06-8.06zm0-325.97c4.427 0 8.06-3.632 8.06-8.06s-3.632-8.06-8.06-8.06-8.06 3.632-8.06 8.06 3.632 8.06 8.06 8.06z"/></svg>